<?xml version="1.0" encoding="utf-8"?>
<!-- Generator: Adobe Illustrator 16.0.0, SVG Export Plug-In . SVG Version: 6.00 Build 0)  -->
<!DOCTYPE svg PUBLIC "-//W3C//DTD SVG 1.1//EN" "http://www.w3.org/Graphics/SVG/1.1/DTD/svg11.dtd">
<svg version="1.1" id="Layer_1" xmlns="http://www.w3.org/2000/svg" xmlns:xlink="http://www.w3.org/1999/xlink" x="0px" y="0px"
	 width="535px" height="535px" viewBox="0 0 535 535" enable-background="new 0 0 535 535" xml:space="preserve">
<g>
	<defs>
		<rect id="SVGID_1_" x="-8.822" y="-13.391" width="552" height="559"/>
	</defs>
	<clipPath id="SVGID_2_">
		<use xlink:href="#SVGID_1_"  overflow="visible"/>
	</clipPath>
	<g clip-path="url(#SVGID_2_)">
		<defs>
			<rect id="SVGID_3_" x="-129" y="-38" width="792" height="612"/>
		</defs>
		<clipPath id="SVGID_4_">
			<use xlink:href="#SVGID_3_"  overflow="visible"/>
		</clipPath>
		<path clip-path="url(#SVGID_4_)" fill="#FFFFFF" d="M489.941,535H45.7C20.461,535,0,514.539,0,489.299V45.058
			C0,20.173,20.173,0,45.058,0h444.883C514.828,0,535,20.173,535,45.058v444.883C535,514.827,514.828,535,489.941,535"/>
		<path clip-path="url(#SVGID_4_)" fill="#224768" d="M485.988,529H49.013C25.258,529,6,509.742,6,485.987V49.013
			C6,25.258,25.258,6,49.013,6h436.975C509.742,6,529,25.258,529,49.013v436.974C529,509.742,509.742,529,485.988,529"/>
		<path clip-path="url(#SVGID_4_)" fill="#FFFFFF" d="M483.156,511H52.487C36.754,511,24,498.246,24,482.514V51.844
			C24,36.466,36.466,24,51.844,24h431.312C498.535,24,511,36.466,511,51.844v431.312C511,498.534,498.535,511,483.156,511"/>
	</g>
	<g clip-path="url(#SVGID_2_)">
		<defs>
			<rect id="SVGID_5_" x="-129" y="-38" width="792" height="612"/>
		</defs>
		<clipPath id="SVGID_6_">
			<use xlink:href="#SVGID_5_"  overflow="visible"/>
		</clipPath>
		<g clip-path="url(#SVGID_6_)">
			<g>
				<defs>
					<path id="SVGID_7_" d="M221.331,300.945h20.696H221.331z"/>
				</defs>
				<clipPath id="SVGID_8_">
					<use xlink:href="#SVGID_7_"  overflow="visible"/>
				</clipPath>
				<path clip-path="url(#SVGID_8_)" fill="#B41D21" d="M221.331,300.945"/>
				<path clip-path="url(#SVGID_8_)" fill="none" stroke="#71000B" stroke-width="0.12" stroke-miterlimit="10" d="M221.331,300.945
					"/>
			</g>
		</g>
		<g opacity="0.23" clip-path="url(#SVGID_6_)">
			<g>
				<defs>
					<rect id="SVGID_9_" x="238.04" y="104.036" width="30.553" height="12.634"/>
				</defs>
				<clipPath id="SVGID_10_">
					<use xlink:href="#SVGID_9_"  overflow="visible"/>
				</clipPath>
				<path clip-path="url(#SVGID_10_)" fill="#517927" d="M266.475,116.669c0.674-0.29,1.378-0.58,2.118-0.871 M239.895,104.036
					c-0.657,0.344-1.258,0.687-1.854,1.028"/>
			</g>
		</g>
		<path clip-path="url(#SVGID_6_)" fill="#A3B827" d="M375.638,300.918h39.411c35.463,0,42.895-8.794,42.895-39.126v-23.463
			c0-28.834,0-76.161-0.029-98.343c0-19.896-8.473-31.906-26.807-39.041c-25.287-10.25-52.801-21.535-68.915-28.051
			c-3.031-1.266-5.896-2.287-8.68-3.062c-0.133-0.053-0.264-0.106-0.408-0.106c-8.312-2.335-15.8-2.518-24.405-0.375
			c-0.062,0-0.111,0.03-0.174,0.054c-0.073,0.025-0.162,0.025-0.242,0.053c-3.505,0.857-7.202,2.144-11.247,3.833l-6.556,2.518
			l47.798,19.231c13.203,5.364,51.708,21.107,59.327,24.249c14.424,5.948,18.266,11.125,18.266,27.643
			c0,4.774,0.057,53.126,0.078,84.263v0.559c0.035,9.283,0.035,16.982,0.035,21.46c0,14.771-4.646,21.265-11.527,24.004h-0.059
			c-3.385,1.284-7.324,1.685-11.533,1.685h-22.09C389.779,288.305,385.509,296.29,375.638,300.918"/>
		<g opacity="0.35" clip-path="url(#SVGID_6_)">
			<g>
				<defs>
					<rect id="SVGID_11_" x="423.484" y="121.748" width="34.516" height="178.859"/>
				</defs>
				<clipPath id="SVGID_12_">
					<use xlink:href="#SVGID_11_"  overflow="visible"/>
				</clipPath>
				<path clip-path="url(#SVGID_12_)" d="M426.3,123.522c6.396,3.491,9.031,10.731,9.33,16.277h0.025
					c0.166,1.862,0.254,3.868,0.275,6.076v23.23c0,3.275,0,9.762,0.02,18.077c0,11.556,0,26.575,0.027,41.108
					c0,20.544,0,41.133-0.047,48.508c0,14.509-4.541,21.157-11.254,23.81C452.238,299.076,458,288.331,458,261.615v-99.451
					c0-14.103-5.557-28.569-34.516-40.416"/>
			</g>
		</g>
	</g>
	<g clip-path="url(#SVGID_2_)">
		<defs>
			<path id="SVGID_13_" d="M170.912,253.699c-0.055-7.378-0.055-26.932-0.055-47.475v-7.746c0.016-11.993,0.016-23.836,0.016-33.364
				c0.039-8.308,0.039-14.802,0.039-18.071c0-16.523,3.714-21.461,18.103-27.41l60.202-24.564c13.066-5.202,22.899-5.365,36.082,0
				c13.209,5.361,51.708,21.104,59.327,24.246c14.42,5.949,18.273,11.125,18.273,27.643c0,4.778,0.05,53.121,0.072,84.266v0.562
				c0.032,9.278,0.032,16.968,0.032,21.45c0,14.779-4.645,21.272-11.533,24.003h-0.045c-3.386,1.291-7.325,1.685-11.528,1.685
				H194.216c-4.393,0-8.446-0.375-11.969-1.738h-0.083C175.446,274.529,170.912,268.201,170.912,253.699 M255.714,69.377
				c-0.054,0-0.106,0.023-0.17,0.052c-0.075,0.029-0.16,0.029-0.24,0.056c-3.492,0.854-7.209,2.143-11.26,3.835
				c-13.148,5.475-57.833,23.867-68.047,27.861c-18.326,7.136-27.155,19.019-27.155,38.912v121.89
				c0,29.683,7.731,38.962,43.196,38.962h150.028c35.463,0,42.905-8.804,42.905-39.126v-23.467c0-28.826,0-76.162-0.035-98.336
				c0-19.901-8.479-31.92-26.809-39.052c-25.289-10.24-52.791-21.53-68.913-28.05c-3.021-1.259-5.899-2.276-8.683-3.056
				c-0.133-0.052-0.264-0.102-0.421-0.102c-4.411-1.242-8.594-1.878-12.836-1.878C263.537,67.878,259.75,68.371,255.714,69.377"/>
		</defs>
		<clipPath id="SVGID_14_">
			<use xlink:href="#SVGID_13_"  overflow="visible"/>
		</clipPath>
		
			<linearGradient id="SVGID_15_" gradientUnits="userSpaceOnUse" x1="-8.9375" y1="598.0449" x2="-7.9375" y2="598.0449" gradientTransform="matrix(0 212.6908 212.6908 0 -126931.6797 1985.9207)">
			<stop  offset="0" style="stop-color:#EC1C24"/>
			<stop  offset="1" style="stop-color:#EC1C24"/>
		</linearGradient>
		<rect x="148.842" y="67.878" clip-path="url(#SVGID_14_)" fill="url(#SVGID_15_)" width="236.13" height="233.067"/>
	</g>
	<g clip-path="url(#SVGID_2_)">
		<defs>
			<rect id="SVGID_16_" x="-129" y="-38" width="792" height="612"/>
		</defs>
		<clipPath id="SVGID_17_">
			<use xlink:href="#SVGID_16_"  overflow="visible"/>
		</clipPath>
		<g opacity="0.4" clip-path="url(#SVGID_17_)">
			<g>
				<defs>
					<rect id="SVGID_18_" x="350.562" y="121.879" width="34.518" height="178.86"/>
				</defs>
				<clipPath id="SVGID_19_">
					<use xlink:href="#SVGID_18_"  overflow="visible"/>
				</clipPath>
				<path clip-path="url(#SVGID_19_)" d="M353.379,123.654c6.397,3.491,9.029,10.73,9.329,16.277h0.027
					c0.166,1.862,0.253,3.868,0.274,6.076v23.23c0,3.275,0,9.762,0.018,18.077c0,11.556,0,26.574,0.029,41.108
					c0,20.544,0,41.132-0.047,48.508c0,14.509-4.543,21.157-11.255,23.809c27.56-1.53,33.324-12.275,33.324-38.991v-99.451
					c0-14.103-5.559-28.57-34.518-40.416"/>
			</g>
		</g>
	</g>
	<g clip-path="url(#SVGID_2_)">
		<defs>
			<path id="SVGID_20_" d="M180.977,69.744c-0.145,0-0.276,0.054-0.409,0.106c-2.784,0.775-5.648,1.797-8.679,3.061
				c-16.114,6.517-43.628,17.803-68.914,28.053c-18.335,7.134-26.808,19.144-26.808,39.04c-0.029,22.183-0.029,69.51-0.029,98.344
				v23.462c0,30.332,7.432,39.125,42.895,39.125h39.411c-9.872-4.628-14.347-12.631-15.138-22.015h-22.09
				c-4.21,0-8.148-0.401-11.533-1.684h-0.059c-6.881-2.741-11.526-9.233-11.526-24.005c0-4.478,0-12.177,0.034-21.46v-0.559
				c0.022-31.136,0.079-79.488,0.079-84.262c0-16.519,3.842-21.696,18.265-27.644c7.619-3.142,46.124-18.884,59.327-24.248
				L223.6,75.828l-6.554-2.519c-4.047-1.689-7.744-2.976-11.25-3.833c-0.078-0.028-0.167-0.028-0.241-0.053
				c-0.061-0.024-0.111-0.053-0.174-0.053c-4.036-1.005-7.824-1.499-11.567-1.499C189.574,67.871,185.392,68.505,180.977,69.744"/>
		</defs>
		<clipPath id="SVGID_21_">
			<use xlink:href="#SVGID_20_"  overflow="visible"/>
		</clipPath>
		
			<linearGradient id="SVGID_22_" gradientUnits="userSpaceOnUse" x1="-9.6362" y1="598.7764" x2="-8.6362" y2="598.7764" gradientTransform="matrix(147.4626 0 0 -147.4626 1497.1853 88481.4688)">
			<stop  offset="0" style="stop-color:#2FB2E6"/>
			<stop  offset="0.3722" style="stop-color:#21AEE6"/>
			<stop  offset="1" style="stop-color:#00A6E5"/>
		</linearGradient>
		<rect x="76.138" y="67.871" clip-path="url(#SVGID_21_)" fill="url(#SVGID_22_)" width="147.462" height="233.064"/>
	</g>
	<g clip-path="url(#SVGID_2_)">
		<defs>
			<rect id="SVGID_23_" x="-129" y="-38" width="792" height="612"/>
		</defs>
		<clipPath id="SVGID_24_">
			<use xlink:href="#SVGID_23_"  overflow="visible"/>
		</clipPath>
		<g opacity="0.4" clip-path="url(#SVGID_24_)">
			<g>
				<defs>
					<rect id="SVGID_25_" x="76.081" y="121.766" width="34.516" height="178.859"/>
				</defs>
				<clipPath id="SVGID_26_">
					<use xlink:href="#SVGID_25_"  overflow="visible"/>
				</clipPath>
				<path clip-path="url(#SVGID_26_)" d="M107.78,123.541c-6.397,3.491-9.03,10.73-9.33,16.277h-0.027
					c-0.165,1.862-0.253,3.868-0.274,6.076v23.23c0,3.275,0,9.762-0.018,18.077c0,11.556,0,26.575-0.029,41.108
					c0,20.544,0,41.132,0.047,48.508c0,14.509,4.543,21.157,11.255,23.809c-27.562-1.53-33.323-12.275-33.323-38.992v-99.451
					c0-14.103,5.557-28.57,34.516-40.416"/>
			</g>
		</g>
		<g opacity="0.4" clip-path="url(#SVGID_24_)">
			<g>
				<defs>
					<rect id="SVGID_27_" x="149.001" y="121.898" width="34.516" height="178.859"/>
				</defs>
				<clipPath id="SVGID_28_">
					<use xlink:href="#SVGID_27_"  overflow="visible"/>
				</clipPath>
				<path clip-path="url(#SVGID_28_)" d="M180.701,123.672c-6.397,3.491-9.03,10.73-9.33,16.277h-0.026
					c-0.166,1.862-0.254,3.868-0.275,6.076v23.23c0,3.275,0,9.762-0.018,18.077c0,11.556,0,26.574-0.029,41.108
					c0,20.544,0,41.132,0.047,48.507c0,14.51,4.543,21.158,11.255,23.81c-27.561-1.53-33.323-12.275-33.323-38.991v-99.451
					c0-14.103,5.557-28.57,34.516-40.416"/>
			</g>
		</g>
	</g>
	<g clip-path="url(#SVGID_2_)">
		<defs>
			<path id="SVGID_29_" d="M124.867,407.44c-1.848-0.658-3.477-1.589-4.883-2.786c-1.412-1.193-2.505-2.571-3.284-4.14
				c-0.779-1.578-1.16-3.229-1.16-4.961v-18.451c0-1.738,0.41-3.388,1.228-4.954c0.835-1.567,1.937-2.95,3.292-4.143
				c1.359-1.202,2.99-2.133,4.881-2.796c1.896-0.657,3.876-0.995,5.911-0.995c2.133,0,4.138,0.338,5.973,0.995
				c1.852,0.663,3.477,1.594,4.879,2.796c1.415,1.192,2.505,2.575,3.283,4.143c0.776,1.566,1.165,3.216,1.165,4.954v18.451
				c0,1.731-0.413,3.383-1.236,4.961c-0.831,1.568-1.918,2.946-3.286,4.14c-1.356,1.197-2.985,2.128-4.875,2.786
				c-1.904,0.667-3.867,0.99-5.903,0.99C128.709,408.431,126.715,408.107,124.867,407.44 M147.753,337.719
				c-1.07,0.91-1.602,2.026-1.602,3.346v17.959c-2.231-1.323-4.635-2.357-7.213-3.103c-2.575-0.744-5.273-1.113-8.087-1.113
				c-3.601,0-7.002,0.577-10.212,1.734c-3.198,1.158-5.999,2.742-8.374,4.771c-2.384,2.022-4.283,4.389-5.702,7.116
				c-1.4,2.728-2.097,5.617-2.097,8.673v18.451c0,3.058,0.67,5.94,2.035,8.673c1.362,2.714,3.249,5.095,5.683,7.119
				c2.432,2.025,5.227,3.613,8.381,4.757c3.161,1.161,6.586,1.743,10.286,1.743c3.586,0,6.984-0.582,10.199-1.743
				c3.202-1.144,6.006-2.731,8.385-4.757c2.379-2.024,4.273-4.405,5.685-7.119c1.414-2.732,2.111-5.615,2.111-8.673v-54.489
				c0-1.319-0.552-2.436-1.667-3.346c-1.139-0.909-2.424-1.359-3.874-1.359C150.142,336.359,148.827,336.81,147.753,337.719"/>
		</defs>
		<clipPath id="SVGID_30_">
			<use xlink:href="#SVGID_29_"  overflow="visible"/>
		</clipPath>
		
			<linearGradient id="SVGID_31_" gradientUnits="userSpaceOnUse" x1="-8.5269" y1="600.0488" x2="-7.5269" y2="600.0488" gradientTransform="matrix(0 -83.4508 -83.4508 0 50205.4844 -294.2625)">
			<stop  offset="0" style="stop-color:#EC1C24"/>
			<stop  offset="1" style="stop-color:#EC1C24"/>
		</linearGradient>
		<rect x="104.466" y="336.359" clip-path="url(#SVGID_30_)" fill="url(#SVGID_31_)" width="52.765" height="81.486"/>
	</g>
	<g clip-path="url(#SVGID_2_)">
		<defs>
			<rect id="SVGID_32_" x="-129" y="-38" width="792" height="612"/>
		</defs>
		<clipPath id="SVGID_33_">
			<use xlink:href="#SVGID_32_"  overflow="visible"/>
		</clipPath>
		<path clip-path="url(#SVGID_33_)" fill="#760A03" d="M130.853,417.905c-3.682,0-7.15-0.587-10.309-1.745
			c-3.144-1.142-5.969-2.745-8.398-4.769c-2.411-2.006-4.328-4.407-5.698-7.138c-1.354-2.713-2.042-5.64-2.042-8.699v-18.452
			c0-3.052,0.708-5.979,2.104-8.7c1.411-2.712,3.334-5.113,5.716-7.136c2.349-2.006,5.172-3.614,8.393-4.781
			c3.199-1.153,6.642-1.737,10.233-1.737c2.814,0,5.541,0.375,8.103,1.115c2.533,0.732,4.933,1.76,7.135,3.055v-17.854
			c0-1.332,0.546-2.473,1.624-3.391c1.077-0.912,2.415-1.374,3.976-1.374c1.454,0,2.77,0.462,3.912,1.373
			c1.121,0.914,1.688,2.056,1.688,3.392v54.491c0,3.059-0.712,5.985-2.117,8.699c-1.418,2.724-3.335,5.125-5.699,7.138
			c-2.371,2.019-5.198,3.623-8.404,4.769C137.861,417.318,134.423,417.905,130.853,417.905z M130.853,354.867
			c-3.578,0-7.007,0.583-10.192,1.731c-3.207,1.162-6.018,2.763-8.355,4.76c-2.371,2.013-4.284,4.401-5.688,7.099
			c-1.387,2.704-2.09,5.612-2.09,8.646v18.452c0,3.041,0.683,5.949,2.029,8.646c1.363,2.715,3.27,5.104,5.668,7.1
			c2.418,2.014,5.231,3.611,8.362,4.747c3.146,1.154,6.6,1.739,10.268,1.739c3.556,0,6.98-0.585,10.177-1.739
			c3.192-1.141,6.007-2.738,8.367-4.747c2.352-2.002,4.26-4.392,5.671-7.101c1.396-2.697,2.103-5.605,2.103-8.645v-54.491
			c0-1.298-0.553-2.408-1.644-3.298c-1.135-0.906-2.39-1.348-3.836-1.348c-1.532,0-2.844,0.453-3.898,1.347
			c-1.049,0.894-1.582,2.004-1.582,3.299v18.065l-0.091-0.054c-2.218-1.315-4.64-2.357-7.198-3.097
			C136.371,355.241,133.656,354.867,130.853,354.867z M130.853,408.49c-2.156,0-4.177-0.334-6.006-0.994
			c-1.843-0.655-3.493-1.596-4.902-2.796c-1.41-1.192-2.52-2.591-3.298-4.159c-0.774-1.565-1.167-3.243-1.167-4.986v-18.452
			c0-1.734,0.416-3.411,1.235-4.981c0.833-1.563,1.945-2.963,3.306-4.16c1.352-1.196,3-2.142,4.9-2.808
			c1.909-0.662,3.904-0.997,5.932-0.997c2.128,0,4.144,0.335,5.992,0.997c1.851,0.663,3.498,1.607,4.898,2.807
			c1.406,1.186,2.516,2.586,3.297,4.162c0.776,1.566,1.17,3.242,1.17,4.98v18.452c0,1.732-0.418,3.411-1.243,4.987
			c-0.835,1.578-1.945,2.977-3.299,4.157c-1.359,1.2-3.006,2.142-4.896,2.797C134.891,408.156,132.898,408.49,130.853,408.49z
			 M130.853,364.275c-2.014,0-3.997,0.334-5.893,0.991c-1.885,0.661-3.521,1.598-4.861,2.784c-1.35,1.188-2.453,2.576-3.279,4.126
			c-0.81,1.554-1.221,3.211-1.221,4.926v18.452c0,1.725,0.388,3.385,1.154,4.934c0.771,1.553,1.871,2.938,3.269,4.12
			c1.398,1.191,3.035,2.125,4.865,2.774c1.817,0.655,3.824,0.988,5.966,0.988c2.032,0,4.011-0.333,5.881-0.988
			c1.875-0.65,3.509-1.584,4.856-2.773c1.343-1.172,2.444-2.559,3.271-4.123c0.815-1.56,1.229-3.219,1.229-4.932v-18.452
			c0-1.72-0.39-3.377-1.158-4.928c-0.775-1.561-1.874-2.948-3.268-4.123c-1.389-1.19-3.024-2.128-4.86-2.785
			C134.969,364.609,132.967,364.275,130.853,364.275z"/>
	</g>
	<g clip-path="url(#SVGID_2_)">
		<defs>
			<path id="SVGID_34_" d="M177.354,377.103c0-1.738,0.387-3.388,1.16-4.954c0.78-1.567,1.873-2.95,3.281-4.143
				c1.41-1.202,3.03-2.133,4.884-2.796c1.848-0.657,3.833-0.995,5.981-0.995c2.031,0,4.005,0.338,5.901,0.995
				c1.891,0.663,3.523,1.594,4.888,2.796c1.357,1.192,2.443,2.575,3.277,4.143c0.832,1.566,1.238,3.216,1.238,4.954v4.833h-30.61
				V377.103z M182.377,356.542c-3.159,1.158-5.955,2.742-8.38,4.771c-2.435,2.022-4.328,4.389-5.685,7.116
				c-1.365,2.728-2.04,5.617-2.04,8.673v18.451c0,3.058,0.708,5.94,2.107,8.673c1.417,2.714,3.303,5.095,5.687,7.119
				c2.374,2.025,5.169,3.613,8.378,4.757c3.206,1.161,6.621,1.743,10.216,1.743c5.437,0,10.293-1.233,14.569-3.716
				c4.282-2.471,7.443-5.699,9.477-9.659c0.493-0.904,0.728-1.656,0.728-2.224c0-1.246-0.529-2.334-1.602-3.281
				c-1.066-0.951-2.383-1.433-3.928-1.433c-1.166,0-2.212,0.272-3.14,0.813c-0.926,0.527-1.58,1.248-1.969,2.168l-0.145,0.363
				c-1.268,2.314-3.133,4.153-5.606,5.516c-2.483,1.353-5.275,2.037-8.384,2.037c-2.049,0-4.016-0.323-5.906-0.99
				c-1.894-0.658-3.523-1.589-4.89-2.786c-1.366-1.193-2.451-2.571-3.281-4.14c-0.822-1.578-1.229-3.229-1.229-4.961v-4.214h36.149
				c1.556,0,2.857-0.451,3.931-1.357c1.074-0.914,1.601-2.023,1.601-3.35v-9.53c0-3.056-0.7-5.945-2.101-8.673
				c-1.415-2.728-3.318-5.094-5.695-7.116c-2.377-2.029-5.17-3.613-8.382-4.771c-3.21-1.157-6.599-1.734-10.197-1.734
				C188.973,354.808,185.537,355.385,182.377,356.542"/>
		</defs>
		<clipPath id="SVGID_35_">
			<use xlink:href="#SVGID_34_"  overflow="visible"/>
		</clipPath>
		
			<linearGradient id="SVGID_36_" gradientUnits="userSpaceOnUse" x1="-8.5269" y1="600.0498" x2="-7.5269" y2="600.0498" gradientTransform="matrix(0 -83.4563 -83.4563 0 50270.5312 -294.3111)">
			<stop  offset="0" style="stop-color:#EC1C24"/>
			<stop  offset="1" style="stop-color:#EC1C24"/>
		</linearGradient>
		<rect x="166.272" y="354.808" clip-path="url(#SVGID_35_)" fill="url(#SVGID_36_)" width="52.763" height="63.038"/>
	</g>
	<g clip-path="url(#SVGID_2_)">
		<defs>
			<rect id="SVGID_37_" x="-129" y="-38" width="792" height="612"/>
		</defs>
		<clipPath id="SVGID_38_">
			<use xlink:href="#SVGID_37_"  overflow="visible"/>
		</clipPath>
		<path clip-path="url(#SVGID_38_)" fill="#760A03" d="M192.66,417.905c-3.592,0-7.036-0.587-10.236-1.745
			c-3.2-1.142-6.025-2.746-8.397-4.769c-2.356-2.003-4.274-4.404-5.701-7.138c-1.403-2.739-2.114-5.666-2.114-8.699v-18.452
			c0-3.06,0.688-5.987,2.046-8.7c1.352-2.715,3.27-5.116,5.7-7.136c2.404-2.01,5.229-3.619,8.398-4.782
			c3.15-1.152,6.617-1.736,10.304-1.736c3.581,0,7.019,0.584,10.217,1.736c3.214,1.16,6.041,2.769,8.4,4.782
			c2.387,2.03,4.308,4.432,5.709,7.136c1.399,2.725,2.109,5.651,2.109,8.7v9.531c0,1.354-0.531,2.465-1.622,3.395
			c-1.095,0.923-2.394,1.371-3.97,1.371h-36.09v4.155c0,1.714,0.411,3.373,1.222,4.933c0.83,1.565,1.929,2.952,3.267,4.122
			c1.358,1.19,2.997,2.123,4.87,2.773c1.859,0.655,3.839,0.988,5.887,0.988c3.072,0,5.883-0.684,8.356-2.03
			c2.445-1.347,4.323-3.194,5.582-5.492l0.142-0.356c0.395-0.932,1.065-1.671,1.994-2.197c0.937-0.546,2.003-0.822,3.169-0.822
			c1.555,0,2.891,0.487,3.969,1.448c1.076,0.95,1.622,2.069,1.622,3.326c0,0.592-0.254,1.37-0.735,2.252
			c-2.035,3.962-5.231,7.22-9.5,9.683C203.002,416.652,198.09,417.905,192.66,417.905z M192.66,354.867
			c-3.673,0-7.125,0.582-10.263,1.73c-3.156,1.158-5.969,2.76-8.362,4.761c-2.417,2.009-4.325,4.397-5.67,7.098
			c-1.35,2.696-2.034,5.605-2.034,8.646v18.452c0,3.014,0.707,5.922,2.1,8.645c1.42,2.719,3.329,5.108,5.673,7.101
			c2.361,2.014,5.173,3.61,8.36,4.747c3.188,1.154,6.618,1.739,10.195,1.739c5.409,0,10.3-1.248,14.54-3.708
			c4.248-2.451,7.429-5.692,9.454-9.635c0.472-0.866,0.721-1.625,0.721-2.196c0-1.238-0.518-2.297-1.582-3.236
			c-1.056-0.941-2.365-1.419-3.89-1.419c-1.145,0-2.191,0.271-3.109,0.807c-0.906,0.514-1.56,1.233-1.943,2.14l-0.145,0.362
			c-1.273,2.324-3.167,4.188-5.633,5.546c-2.49,1.356-5.321,2.044-8.414,2.044c-2.061,0-4.055-0.334-5.926-0.994
			c-1.888-0.655-3.54-1.596-4.91-2.797c-1.349-1.18-2.457-2.578-3.294-4.156c-0.82-1.577-1.236-3.255-1.236-4.988v-4.274h36.21
			c1.547,0,2.82-0.439,3.893-1.344c1.063-0.905,1.58-1.985,1.58-3.303v-9.531c0-3.029-0.705-5.938-2.095-8.646
			c-1.395-2.689-3.306-5.078-5.681-7.099c-2.349-2.004-5.162-3.606-8.363-4.761C199.651,355.449,196.227,354.867,192.66,354.867z
			 M208.024,381.995h-30.73v-4.893c0-1.736,0.393-3.412,1.167-4.98c0.781-1.57,1.89-2.971,3.296-4.162
			c1.413-1.204,3.062-2.148,4.903-2.807c1.861-0.662,3.88-0.997,6.001-0.997c2.019,0,4.011,0.335,5.921,0.997
			c1.895,0.664,3.546,1.608,4.908,2.808c1.34,1.178,2.447,2.577,3.29,4.159c0.826,1.554,1.244,3.23,1.244,4.982V381.995z
			 M177.414,381.876h30.49v-4.773c0-1.732-0.414-3.39-1.23-4.926c-0.836-1.569-1.934-2.958-3.263-4.126
			c-1.351-1.188-2.989-2.125-4.869-2.784c-1.897-0.657-3.876-0.991-5.882-0.991c-2.107,0-4.113,0.334-5.961,0.991
			c-1.826,0.653-3.463,1.591-4.865,2.785c-1.394,1.181-2.492,2.568-3.266,4.123c-0.766,1.552-1.154,3.21-1.154,4.928V381.876z"/>
	</g>
	<g clip-path="url(#SVGID_2_)">
		<defs>
			<path id="SVGID_39_" d="M229.68,337.719c-1.071,0.91-1.608,2.026-1.608,3.346v72.08c0,1.324,0.564,2.437,1.686,3.342
				c1.113,0.91,2.4,1.359,3.86,1.359c1.557,0,2.868-0.449,3.936-1.359c1.066-0.905,1.601-2.018,1.601-3.342v-72.08
				c0-1.319-0.568-2.436-1.677-3.346c-1.118-0.909-2.401-1.359-3.86-1.359C232.062,336.359,230.746,336.81,229.68,337.719"/>
		</defs>
		<clipPath id="SVGID_40_">
			<use xlink:href="#SVGID_39_"  overflow="visible"/>
		</clipPath>
		
			<linearGradient id="SVGID_41_" gradientUnits="userSpaceOnUse" x1="-8.5269" y1="600.0498" x2="-7.5269" y2="600.0498" gradientTransform="matrix(0 -83.4508 -83.4508 0 50308.2344 -294.2625)">
			<stop  offset="0" style="stop-color:#EC1C24"/>
			<stop  offset="1" style="stop-color:#EC1C24"/>
		</linearGradient>
		<rect x="228.071" y="336.359" clip-path="url(#SVGID_40_)" fill="url(#SVGID_41_)" width="11.083" height="81.486"/>
	</g>
	<g clip-path="url(#SVGID_2_)">
		<defs>
			<rect id="SVGID_42_" x="-129" y="-38" width="792" height="612"/>
		</defs>
		<clipPath id="SVGID_43_">
			<use xlink:href="#SVGID_42_"  overflow="visible"/>
		</clipPath>
		<path clip-path="url(#SVGID_43_)" fill="#760A03" d="M233.618,417.905c-1.472,0-2.783-0.462-3.898-1.373
			c-1.133-0.913-1.708-2.053-1.708-3.388v-72.081c0-1.331,0.548-2.473,1.628-3.391c1.07-0.912,2.409-1.374,3.978-1.374
			c1.465,0,2.777,0.462,3.898,1.373c1.127,0.926,1.699,2.066,1.699,3.392v72.081c0,1.334-0.546,2.474-1.624,3.387
			C236.523,417.443,235.187,417.905,233.618,417.905z M233.618,336.418c-1.54,0-2.852,0.453-3.9,1.347
			c-1.052,0.895-1.586,2.004-1.586,3.299v72.081c0,1.297,0.56,2.405,1.664,3.294c1.093,0.895,2.379,1.348,3.822,1.348
			c1.539,0,2.85-0.453,3.896-1.347c1.049-0.889,1.581-1.998,1.581-3.295v-72.081c0-1.287-0.557-2.397-1.655-3.299
			C236.341,336.871,235.055,336.418,233.618,336.418z"/>
	</g>
	<g clip-path="url(#SVGID_2_)">
		<defs>
			<path id="SVGID_44_" d="M258.406,377.103c0-1.738,0.382-3.388,1.16-4.954c0.775-1.567,1.868-2.95,3.28-4.143
				c1.406-1.202,3.034-2.133,4.885-2.796c1.844-0.657,3.842-0.995,5.974-0.995c2.038,0,4.015,0.338,5.909,0.995
				c1.905,0.663,3.535,1.594,4.891,2.796c1.363,1.192,2.451,2.575,3.273,4.143c0.824,1.566,1.237,3.216,1.237,4.954v4.833h-30.609
				V377.103z M263.424,356.542c-3.148,1.158-5.947,2.742-8.381,4.771c-2.431,2.022-4.319,4.389-5.683,7.116
				c-1.356,2.728-2.036,5.617-2.036,8.673v18.451c0,3.058,0.705,5.94,2.104,8.673c1.418,2.714,3.311,5.095,5.685,7.119
				c2.382,2.025,5.191,3.613,8.394,4.757c3.194,1.161,6.6,1.743,10.197,1.743c5.449,0,10.309-1.233,14.572-3.716
				c4.297-2.471,7.441-5.699,9.492-9.659c0.475-0.904,0.727-1.656,0.727-2.224c0-1.246-0.535-2.334-1.602-3.281
				c-1.055-0.951-2.392-1.433-3.936-1.433c-1.173,0-2.217,0.272-3.138,0.813c-0.925,0.527-1.585,1.248-1.961,2.168l-0.154,0.363
				c-1.266,2.314-3.131,4.153-5.615,5.516c-2.477,1.353-5.268,2.037-8.386,2.037c-2.04,0-4.002-0.323-5.896-0.99
				c-1.896-0.658-3.522-1.589-4.882-2.786c-1.366-1.193-2.469-2.571-3.288-4.14c-0.831-1.578-1.233-3.229-1.233-4.961v-4.214h36.142
				c1.564,0,2.884-0.451,3.948-1.357c1.063-0.914,1.604-2.023,1.604-3.35v-9.53c0-3.056-0.706-5.945-2.11-8.673
				c-1.411-2.728-3.304-5.094-5.692-7.116c-2.385-2.029-5.177-3.613-8.381-4.771c-3.21-1.157-6.61-1.734-10.211-1.734
				C270.016,354.808,266.583,355.385,263.424,356.542"/>
		</defs>
		<clipPath id="SVGID_45_">
			<use xlink:href="#SVGID_44_"  overflow="visible"/>
		</clipPath>
		
			<linearGradient id="SVGID_46_" gradientUnits="userSpaceOnUse" x1="-8.5269" y1="600.0488" x2="-7.5269" y2="600.0488" gradientTransform="matrix(0 -83.4563 -83.4563 0 50351.5938 -294.3111)">
			<stop  offset="0" style="stop-color:#EC1C24"/>
			<stop  offset="1" style="stop-color:#EC1C24"/>
		</linearGradient>
		<rect x="247.325" y="354.808" clip-path="url(#SVGID_45_)" fill="url(#SVGID_46_)" width="52.774" height="63.038"/>
	</g>
	<g clip-path="url(#SVGID_2_)">
		<defs>
			<rect id="SVGID_47_" x="-129" y="-38" width="792" height="612"/>
		</defs>
		<clipPath id="SVGID_48_">
			<use xlink:href="#SVGID_47_"  overflow="visible"/>
		</clipPath>
		<path clip-path="url(#SVGID_48_)" fill="#760A03" d="M273.705,417.905c-3.592,0-7.029-0.587-10.217-1.745
			c-3.209-1.146-6.04-2.751-8.413-4.769c-2.359-2.013-4.276-4.414-5.699-7.138c-1.401-2.736-2.112-5.664-2.112-8.699v-18.452
			c0-3.045,0.688-5.972,2.043-8.699c1.36-2.721,3.277-5.122,5.698-7.137c2.41-2.008,5.236-3.617,8.399-4.782
			c3.148-1.152,6.614-1.736,10.3-1.736c3.589,0,7.032,0.584,10.231,1.736c3.207,1.161,6.033,2.77,8.399,4.782
			c2.38,2.017,4.3,4.417,5.707,7.136c1.405,2.729,2.118,5.657,2.118,8.7v9.531c0,1.326-0.547,2.468-1.625,3.395
			c-1.069,0.91-2.411,1.371-3.987,1.371h-36.082v4.155c0,1.728,0.412,3.387,1.225,4.932c0.806,1.541,1.908,2.929,3.275,4.123
			c1.35,1.19,2.986,2.123,4.862,2.773c1.861,0.655,3.838,0.988,5.876,0.988c3.079,0,5.891-0.684,8.357-2.03
			c2.452-1.345,4.333-3.192,5.591-5.491l0.152-0.358c0.376-0.923,1.045-1.662,1.986-2.196c0.929-0.546,1.995-0.822,3.167-0.822
			c1.572,0,2.91,0.487,3.977,1.448c1.075,0.956,1.621,2.075,1.621,3.326c0,0.566-0.247,1.323-0.732,2.252
			c-2.062,3.979-5.264,7.238-9.517,9.683C284.061,416.652,279.148,417.905,273.705,417.905z M273.705,354.867
			c-3.672,0-7.124,0.582-10.259,1.73c-3.15,1.16-5.964,2.762-8.363,4.761c-2.408,2.005-4.315,4.393-5.667,7.098
			c-1.348,2.711-2.031,5.62-2.031,8.646v18.452c0,3.017,0.706,5.925,2.098,8.645c1.416,2.709,3.324,5.099,5.671,7.101
			c2.362,2.009,5.18,3.605,8.375,4.747c3.175,1.154,6.599,1.739,10.177,1.739c5.422,0,10.315-1.248,14.542-3.708
			c4.232-2.434,7.418-5.676,9.47-9.635c0.477-0.911,0.719-1.649,0.719-2.196c0-1.232-0.517-2.291-1.581-3.236
			c-1.044-0.941-2.355-1.419-3.896-1.419c-1.151,0-2.197,0.271-3.107,0.807c-0.918,0.521-1.569,1.241-1.936,2.139l-0.155,0.364
			c-1.271,2.325-3.169,4.188-5.642,5.545c-2.484,1.356-5.315,2.044-8.415,2.044c-2.052,0-4.042-0.334-5.916-0.994
			c-1.891-0.655-3.54-1.596-4.902-2.797c-1.378-1.204-2.49-2.603-3.303-4.157c-0.822-1.562-1.239-3.24-1.239-4.987v-4.274h36.202
			c1.547,0,2.863-0.452,3.909-1.344c1.065-0.915,1.583-1.995,1.583-3.303v-9.531c0-3.024-0.708-5.933-2.104-8.646
			c-1.399-2.704-3.31-5.093-5.678-7.099c-2.355-2.004-5.169-3.605-8.363-4.761C280.708,355.449,277.28,354.867,273.705,354.867z
			 M289.075,381.995h-30.729v-4.893c0-1.747,0.393-3.423,1.167-4.98c0.777-1.573,1.886-2.974,3.295-4.162
			c1.402-1.199,3.052-2.144,4.904-2.807c1.857-0.662,3.874-0.997,5.994-0.997c2.025,0,4.02,0.335,5.929,0.997
			c1.904,0.663,3.557,1.607,4.911,2.808c1.354,1.185,2.46,2.584,3.287,4.159c0.826,1.569,1.244,3.245,1.244,4.982V381.995z
			 M258.466,381.876h30.489v-4.773c0-1.717-0.414-3.375-1.23-4.926c-0.819-1.562-1.917-2.951-3.26-4.126
			c-1.343-1.189-2.981-2.127-4.871-2.784c-1.896-0.657-3.878-0.991-5.89-0.991c-2.106,0-4.109,0.334-5.954,0.991
			c-1.838,0.658-3.475,1.596-4.866,2.785c-1.396,1.178-2.495,2.565-3.265,4.123c-0.766,1.541-1.154,3.199-1.154,4.928V381.876z"/>
	</g>
	<g clip-path="url(#SVGID_2_)">
		<defs>
			<path id="SVGID_49_" d="M328.454,407.44c-1.902-0.658-3.524-1.589-4.882-2.786c-1.364-1.193-2.46-2.571-3.284-4.14
				c-0.838-1.578-1.241-3.229-1.241-4.961v-18.451c0-1.738,0.385-3.388,1.165-4.954c0.77-1.567,1.875-2.95,3.279-4.143
				c1.413-1.202,3.039-2.133,4.882-2.796c1.849-0.657,3.845-0.995,5.973-0.995c2.04,0,4.025,0.338,5.907,0.995
				c1.906,0.663,3.527,1.594,4.892,2.796c1.358,1.192,2.452,2.575,3.268,4.143c0.834,1.566,1.252,3.216,1.252,4.954v18.451
				c0,1.731-0.4,3.383-1.17,4.961c-0.78,1.568-1.871,2.946-3.279,4.14c-1.414,1.197-3.034,2.128-4.891,2.786
				c-1.85,0.667-3.836,0.99-5.979,0.99C332.317,408.431,330.343,408.107,328.454,407.44 M324.072,356.542
				c-3.146,1.158-5.956,2.742-8.375,4.771c-2.434,2.022-4.329,4.389-5.692,7.116c-1.357,2.728-2.037,5.617-2.037,8.673v18.451
				c0,3.058,0.699,5.94,2.112,8.673c1.404,2.714,3.312,5.095,5.692,7.119c2.371,2.025,5.161,3.613,8.374,4.757
				c3.204,1.161,6.615,1.743,10.199,1.743c3.596,0,7.006-0.582,10.211-1.743c3.205-1.144,6.023-2.731,8.462-4.757
				c2.428-2.024,4.31-4.405,5.688-7.119c1.352-2.732,2.035-5.615,2.035-8.673v-18.451c0-3.056-0.718-5.945-2.117-8.673
				c-1.405-2.728-3.293-5.094-5.678-7.116c-2.386-2.029-5.185-3.613-8.39-4.771c-3.205-1.157-6.615-1.734-10.211-1.734
				C330.657,354.808,327.234,355.385,324.072,356.542"/>
		</defs>
		<clipPath id="SVGID_50_">
			<use xlink:href="#SVGID_49_"  overflow="visible"/>
		</clipPath>
		
			<linearGradient id="SVGID_51_" gradientUnits="userSpaceOnUse" x1="-8.5269" y1="600.0498" x2="-7.5269" y2="600.0498" gradientTransform="matrix(0 -83.4563 -83.4563 0 50412.2812 -294.3111)">
			<stop  offset="0" style="stop-color:#EC1C24"/>
			<stop  offset="1" style="stop-color:#EC1C24"/>
		</linearGradient>
		<rect x="307.967" y="354.808" clip-path="url(#SVGID_50_)" fill="url(#SVGID_51_)" width="52.773" height="63.038"/>
	</g>
	<g clip-path="url(#SVGID_2_)">
		<defs>
			<rect id="SVGID_52_" x="-129" y="-38" width="792" height="612"/>
		</defs>
		<clipPath id="SVGID_53_">
			<use xlink:href="#SVGID_52_"  overflow="visible"/>
		</clipPath>
		<path clip-path="url(#SVGID_53_)" fill="#760A03" d="M334.345,417.905c-3.581,0-7.02-0.587-10.22-1.745
			c-3.197-1.14-6.021-2.744-8.394-4.769c-2.386-2.032-4.306-4.434-5.706-7.138c-1.406-2.719-2.119-5.646-2.119-8.699v-18.452
			c0-3.049,0.688-5.977,2.043-8.699c1.357-2.715,3.277-5.116,5.708-7.137c2.382-1.998,5.205-3.606,8.392-4.781
			c3.153-1.153,6.617-1.737,10.295-1.737c3.595,0,7.038,0.584,10.231,1.737c3.216,1.163,6.045,2.771,8.408,4.781
			c2.377,2.019,4.292,4.419,5.692,7.136c1.409,2.748,2.124,5.675,2.124,8.7v18.452c0,3.036-0.687,5.963-2.042,8.698
			c-1.39,2.739-3.308,5.141-5.701,7.139c-2.44,2.026-5.294,3.631-8.481,4.769C341.376,417.318,337.934,417.905,334.345,417.905z
			 M334.345,354.867c-3.664,0-7.114,0.583-10.254,1.731c-3.173,1.169-5.985,2.771-8.356,4.76c-2.418,2.011-4.328,4.398-5.677,7.098
			c-1.348,2.707-2.031,5.616-2.031,8.646v18.452c0,3.034,0.708,5.942,2.105,8.645c1.393,2.689,3.303,5.078,5.677,7.101
			c2.361,2.016,5.173,3.613,8.356,4.747c3.188,1.154,6.612,1.739,10.179,1.739c3.575,0,7.003-0.585,10.19-1.739
			c3.174-1.133,6.016-2.73,8.445-4.747c2.38-1.988,4.288-4.377,5.67-7.101c1.347-2.719,2.03-5.627,2.03-8.645v-18.452
			c0-3.006-0.71-5.915-2.11-8.646c-1.393-2.702-3.298-5.091-5.664-7.099c-2.352-2.001-5.168-3.602-8.371-4.76
			C341.355,355.45,337.926,354.867,334.345,354.867z M334.345,408.49c-2.053,0-4.042-0.334-5.912-0.994
			c-1.886-0.65-3.535-1.592-4.901-2.797c-1.369-1.197-2.479-2.596-3.298-4.156c-0.828-1.561-1.248-3.238-1.248-4.988v-18.452
			c0-1.743,0.395-3.419,1.172-4.98c0.761-1.553,1.869-2.953,3.293-4.162c1.411-1.199,3.059-2.144,4.9-2.807
			c1.863-0.662,3.879-0.997,5.993-0.997c2.038,0,4.032,0.335,5.927,0.997c1.891,0.658,3.543,1.603,4.912,2.808
			c1.364,1.198,2.467,2.598,3.28,4.16c0.835,1.568,1.259,3.244,1.259,4.981v18.452c0,1.71-0.396,3.388-1.176,4.986
			c-0.78,1.568-1.889,2.968-3.294,4.159c-1.424,1.207-3.075,2.147-4.909,2.796C338.515,408.156,336.496,408.49,334.345,408.49z
			 M334.345,364.275c-2.1,0-4.103,0.334-5.953,0.991c-1.828,0.657-3.464,1.595-4.863,2.785c-1.412,1.198-2.51,2.586-3.264,4.123
			c-0.77,1.545-1.16,3.203-1.16,4.928v18.452c0,1.73,0.415,3.39,1.234,4.932c0.812,1.548,1.913,2.936,3.271,4.123
			c1.354,1.194,2.99,2.128,4.862,2.773c1.857,0.655,3.833,0.988,5.872,0.988c2.137,0,4.142-0.333,5.958-0.988
			c1.821-0.643,3.459-1.576,4.873-2.774c1.393-1.181,2.491-2.566,3.264-4.12c0.772-1.582,1.164-3.241,1.164-4.934v-18.452
			c0-1.717-0.419-3.374-1.245-4.926c-0.807-1.55-1.901-2.938-3.253-4.126c-1.357-1.194-2.997-2.132-4.873-2.784
			C338.35,364.609,336.37,364.275,334.345,364.275z"/>
	</g>
	<g clip-path="url(#SVGID_2_)">
		<defs>
			<path id="SVGID_54_" d="M385.742,356.542c-3.156,1.158-5.956,2.742-8.379,4.771c-2.435,2.022-4.332,4.389-5.691,7.116
				c-1.368,2.728-2.04,5.617-2.04,8.673v36.042c0,1.324,0.527,2.437,1.606,3.342c1.061,0.91,2.376,1.359,3.937,1.359
				c1.458,0,2.745-0.449,3.852-1.359c1.131-0.905,1.686-2.018,1.686-3.342v-36.042c0-1.738,0.377-3.388,1.168-4.954
				c0.771-1.567,1.867-2.95,3.281-4.143c1.4-1.202,3.021-2.133,4.871-2.796c1.854-0.657,3.848-0.995,5.979-0.995
				c2.055,0,4.014,0.338,5.912,0.995c1.895,0.663,3.52,1.594,4.885,2.796c1.363,1.192,2.447,2.575,3.283,4.143
				c0.82,1.566,1.238,3.216,1.238,4.954v36.042c0,1.324,0.535,2.437,1.6,3.342c1.061,0.91,2.379,1.359,3.938,1.359
				c1.455,0,2.75-0.449,3.863-1.359c1.117-0.905,1.682-2.018,1.682-3.342v-36.042c0-3.056-0.715-5.945-2.123-8.673
				s-3.305-5.094-5.695-7.116c-2.373-2.029-5.164-3.613-8.379-4.771c-3.207-1.157-6.594-1.734-10.203-1.734
				C392.324,354.808,388.896,355.385,385.742,356.542"/>
		</defs>
		<clipPath id="SVGID_55_">
			<use xlink:href="#SVGID_54_"  overflow="visible"/>
		</clipPath>
		
			<linearGradient id="SVGID_56_" gradientUnits="userSpaceOnUse" x1="-8.5269" y1="600.0488" x2="-7.5269" y2="600.0488" gradientTransform="matrix(0 -83.4563 -83.4563 0 50473.9062 -294.3111)">
			<stop  offset="0" style="stop-color:#EC1C24"/>
			<stop  offset="1" style="stop-color:#EC1C24"/>
		</linearGradient>
		<rect x="369.631" y="354.808" clip-path="url(#SVGID_55_)" fill="url(#SVGID_56_)" width="52.78" height="63.038"/>
	</g>
	<g clip-path="url(#SVGID_2_)">
		<defs>
			<rect id="SVGID_57_" x="-129" y="-38" width="792" height="612"/>
		</defs>
		<clipPath id="SVGID_58_">
			<use xlink:href="#SVGID_57_"  overflow="visible"/>
		</clipPath>
		<path clip-path="url(#SVGID_58_)" fill="#760A03" d="M416.867,417.905c-1.575,0-2.914-0.462-3.977-1.374
			c-1.075-0.914-1.62-2.053-1.62-3.387v-36.042c0-1.709-0.415-3.366-1.231-4.926c-0.84-1.574-1.939-2.963-3.27-4.126
			c-1.356-1.192-2.993-2.129-4.865-2.784c-1.926-0.667-3.854-0.991-5.893-0.991c-2.1,0-4.104,0.334-5.958,0.991
			c-1.829,0.655-3.462,1.593-4.853,2.785c-1.403,1.183-2.502,2.57-3.267,4.123c-0.771,1.527-1.162,3.186-1.162,4.928v36.042
			c0,1.342-0.575,2.481-1.708,3.388c-1.109,0.911-2.417,1.373-3.89,1.373c-1.575,0-2.913-0.462-3.976-1.374
			c-1.08-0.905-1.627-2.045-1.627-3.387v-36.042c0-3.065,0.688-5.993,2.046-8.7c1.352-2.711,3.271-5.112,5.704-7.136
			c2.402-2.008,5.228-3.617,8.399-4.782c3.145-1.152,6.606-1.736,10.29-1.736c3.587,0,7.026,0.584,10.224,1.736
			c3.216,1.16,6.042,2.769,8.397,4.782c2.388,2.021,4.309,4.422,5.71,7.136c1.413,2.741,2.129,5.668,2.129,8.7v36.042
			c0,1.333-0.573,2.473-1.703,3.388C419.653,417.443,418.34,417.905,416.867,417.905z M396.011,364.156
			c2.053,0,3.993,0.326,5.932,0.997c1.887,0.66,3.537,1.605,4.905,2.808c1.341,1.173,2.449,2.572,3.296,4.159
			c0.826,1.578,1.245,3.254,1.245,4.982v36.042c0,1.297,0.531,2.405,1.579,3.295c1.041,0.894,2.353,1.347,3.898,1.347
			c1.445,0,2.732-0.453,3.825-1.348c1.102-0.891,1.66-1.999,1.66-3.294v-36.042c0-3.013-0.713-5.922-2.117-8.646
			c-1.394-2.699-3.305-5.088-5.681-7.099c-2.345-2.005-5.157-3.606-8.36-4.761c-3.184-1.148-6.609-1.73-10.183-1.73
			c-3.67,0-7.118,0.582-10.249,1.73c-3.159,1.16-5.972,2.762-8.363,4.761c-2.421,2.014-4.33,4.401-5.674,7.098
			c-1.35,2.69-2.034,5.6-2.034,8.646v36.042c0,1.323,0.519,2.401,1.585,3.295c1.041,0.894,2.353,1.347,3.898,1.347
			c1.443,0,2.727-0.453,3.814-1.347c1.104-0.884,1.664-1.991,1.664-3.295v-36.042c0-1.762,0.396-3.438,1.175-4.981
			c0.771-1.567,1.881-2.968,3.296-4.161c1.401-1.201,3.046-2.146,4.889-2.807C391.879,364.491,393.898,364.156,396.011,364.156z"/>
		<path clip-path="url(#SVGID_58_)" fill="#EC1C24" d="M165.238,468.027h-4.772l-6.415-7.395h-4.234v7.395h-4.171v-22.152
			c3.507,0,7.015,0.031,10.523,0.031c5.214,0.032,7.963,3.508,7.963,7.332c0,3.033-1.39,6.099-5.593,6.951l6.699,7.554V468.027z
			 M149.817,449.794v7.078h6.352c2.654,0,3.792-1.77,3.792-3.539s-1.169-3.539-3.792-3.539H149.817z"/>
		<polygon clip-path="url(#SVGID_58_)" fill="#EC1C24" points="209.236,468.027 192.677,468.027 192.677,445.906 209.236,445.906 
			209.236,449.951 196.817,449.951 196.817,455.039 208.794,455.039 208.794,458.926 196.817,458.926 196.817,463.919 
			209.236,463.919 		"/>
		<path clip-path="url(#SVGID_58_)" fill="#EC1C24" d="M253.172,463.856h-11.566l-1.896,4.171h-4.519l9.923-22.121h4.55
			l9.923,22.121h-4.551L253.172,463.856z M247.389,450.552l-4.108,9.417h8.216L247.389,450.552z"/>
		<polygon clip-path="url(#SVGID_58_)" fill="#EC1C24" points="290.502,445.906 290.502,464.172 301.879,464.172 301.879,468.027 
			286.332,468.027 286.332,445.906 		"/>
		<polygon clip-path="url(#SVGID_58_)" fill="#EC1C24" points="331.15,449.699 324.134,449.699 324.134,445.906 342.336,445.906 
			342.336,449.699 335.321,449.699 335.321,468.027 331.15,468.027 		"/>
		<polygon clip-path="url(#SVGID_58_)" fill="#EC1C24" points="377.833,455.039 383.71,445.906 388.736,445.906 388.736,446.097 
			379.919,458.895 379.919,468.027 375.747,468.027 375.747,458.895 367.247,446.097 367.247,445.906 372.208,445.906 		"/>
	</g>
	<rect x="119.194" y="-21.594" clip-path="url(#SVGID_2_)" fill="none" width="792.001" height="612"/>
</g>
</svg>
